<svg xmlns="http://www.w3.org/2000/svg" viewBox="0 0 1000 559" role="img" aria-label="Visitor locations">
  <defs>
    <filter id="glow" x="-60%" y="-60%" width="220%" height="220%">
      <feDropShadow dx="0" dy="1.2" stdDeviation="1.8" flood-color="#174ea6" flood-opacity="0.28"/>
    </filter>
    <style>
      .halo{fill:#1d4ed8;opacity:.16}
      .dot{fill:#2563eb;stroke:#ffffff;stroke-width:2.2;filter:url(#glow)}
      .dot2{fill:#60a5fa;stroke:#ffffff;stroke-width:2;filter:url(#glow)}
      .dot3{fill:#64748b;stroke:#ffffff;stroke-width:1.8;filter:url(#glow)}
    </style>
  </defs>

  <!-- North America -->
  <g>
    <circle class="halo" cx="156" cy="190" r="13"/><circle class="dot" cx="156" cy="190" r="6.2"/>
    <circle class="halo" cx="184" cy="204" r="12"/><circle class="dot2" cx="184" cy="204" r="5.8"/>
    <circle class="halo" cx="214" cy="198" r="14"/><circle class="dot" cx="214" cy="198" r="6.8"/>
    <circle class="halo" cx="241" cy="185" r="11"/><circle class="dot3" cx="241" cy="185" r="5.1"/>
    <circle class="halo" cx="263" cy="204" r="10"/><circle class="dot2" cx="263" cy="204" r="4.8"/>
    <circle class="halo" cx="285" cy="189" r="12"/><circle class="dot" cx="285" cy="189" r="5.8"/>
    <circle class="halo" cx="297" cy="215" r="9"/><circle class="dot2" cx="297" cy="215" r="4.4"/>
    <circle class="halo" cx="196" cy="222" r="9"/><circle class="dot3" cx="196" cy="222" r="4.2"/>
  </g>

  <!-- South America -->
  <g>
    <circle class="halo" cx="311" cy="331" r="11"/><circle class="dot" cx="311" cy="331" r="5.3"/>
    <circle class="halo" cx="326" cy="355" r="9"/><circle class="dot2" cx="326" cy="355" r="4.5"/>
    <circle class="halo" cx="298" cy="381" r="8"/><circle class="dot3" cx="298" cy="381" r="4"/>
  </g>

  <!-- Europe -->
  <g>
    <circle class="halo" cx="489" cy="164" r="11"/><circle class="dot" cx="489" cy="164" r="5.2"/>
    <circle class="halo" cx="503" cy="172" r="10"/><circle class="dot2" cx="503" cy="172" r="4.9"/>
    <circle class="halo" cx="518" cy="166" r="12"/><circle class="dot" cx="518" cy="166" r="5.8"/>
    <circle class="halo" cx="531" cy="177" r="9"/><circle class="dot3" cx="531" cy="177" r="4.3"/>
    <circle class="halo" cx="546" cy="170" r="10"/><circle class="dot2" cx="546" cy="170" r="4.8"/>
    <circle class="halo" cx="559" cy="184" r="8"/><circle class="dot" cx="559" cy="184" r="4"/>
    <circle class="halo" cx="474" cy="183" r="8"/><circle class="dot3" cx="474" cy="183" r="4"/>
  </g>

  <!-- Middle East and India -->
  <g>
    <circle class="halo" cx="608" cy="226" r="9"/><circle class="dot2" cx="608" cy="226" r="4.4"/>
    <circle class="halo" cx="652" cy="258" r="12"/><circle class="dot" cx="652" cy="258" r="5.8"/>
    <circle class="halo" cx="669" cy="273" r="9"/><circle class="dot3" cx="669" cy="273" r="4.4"/>
  </g>

  <!-- East China: Beijing, Nanjing, Shanghai, Hangzhou, Hong Kong, Macau -->
  <g>
    <circle class="halo" cx="769" cy="205" r="11"/><circle class="dot" cx="769" cy="205" r="5.4"/>
    <circle class="halo" cx="780" cy="220" r="15"/><circle class="dot" cx="780" cy="220" r="7.2"/>
    <circle class="halo" cx="792" cy="223" r="13"/><circle class="dot2" cx="792" cy="223" r="6.2"/>
    <circle class="halo" cx="786" cy="232" r="12"/><circle class="dot" cx="786" cy="232" r="5.8"/>
    <circle class="halo" cx="773" cy="239" r="10"/><circle class="dot3" cx="773" cy="239" r="4.8"/>
    <circle class="halo" cx="778" cy="246" r="10"/><circle class="dot2" cx="778" cy="246" r="4.8"/>
    <circle class="halo" cx="798" cy="211" r="8"/><circle class="dot3" cx="798" cy="211" r="4"/>
    <circle class="halo" cx="804" cy="228" r="9"/><circle class="dot" cx="804" cy="228" r="4.4"/>
    <circle class="halo" cx="790" cy="243" r="8"/><circle class="dot2" cx="790" cy="243" r="4"/>
    <circle class="halo" cx="765" cy="228" r="8"/><circle class="dot3" cx="765" cy="228" r="3.9"/>
    <circle class="halo" cx="783" cy="214" r="8"/><circle class="dot2" cx="783" cy="214" r="4"/>
  </g>

  <!-- Japan and Korea -->
  <g>
    <circle class="halo" cx="832" cy="214" r="9"/><circle class="dot" cx="832" cy="214" r="4.4"/>
    <circle class="halo" cx="815" cy="218" r="8"/><circle class="dot3" cx="815" cy="218" r="3.9"/>
  </g>

  <!-- Southeast Asia and Singapore -->
  <g>
    <circle class="halo" cx="751" cy="292" r="10"/><circle class="dot2" cx="751" cy="292" r="4.8"/>
    <circle class="halo" cx="744" cy="318" r="12"/><circle class="dot" cx="744" cy="318" r="5.8"/>
    <circle class="halo" cx="759" cy="323" r="9"/><circle class="dot3" cx="759" cy="323" r="4.3"/>
    <circle class="halo" cx="731" cy="327" r="8"/><circle class="dot2" cx="731" cy="327" r="4"/>
  </g>

  <!-- Australia -->
  <g>
    <circle class="halo" cx="866" cy="394" r="13"/><circle class="dot" cx="866" cy="394" r="6.2"/>
    <circle class="halo" cx="839" cy="383" r="9"/><circle class="dot2" cx="839" cy="383" r="4.3"/>
  </g>
</svg>
